<svg width="80" height="80" viewBox="0 0 80 80" fill="none" xmlns="http://www.w3.org/2000/svg">
<g clip-path="url(#clip0_253_2205)">
<g filter="url(#filter0_d_253_2205)">
<path d="M40 7.66675C57.8569 7.66675 72.3338 22.1427 72.334 39.9998C72.334 57.8568 57.857 72.3337 40 72.3337C22.1429 72.3336 7.66699 57.8567 7.66699 39.9998C7.66717 22.1428 22.143 7.66692 40 7.66675Z" stroke="#F5F5F5" stroke-width="2" stroke-linecap="round"/>
</g>
<path d="M39.9997 51.4722C45.7527 51.4722 50.4163 46.8086 50.4163 41.0556C50.4163 35.3026 45.7527 30.6389 39.9997 30.6389C34.2467 30.6389 29.583 35.3026 29.583 41.0556C29.583 46.8086 34.2467 51.4722 39.9997 51.4722Z" fill="#F7F7F7" fill-opacity="0.3"/>
<path d="M19.1662 56.3333C18.3996 56.3333 17.7773 55.7111 17.7773 54.9444C17.7773 51.1111 20.8885 48 24.7218 48C25.4885 48 26.1107 48.6222 26.1107 49.3889C26.1107 53.2222 22.9996 56.3333 19.1662 56.3333Z" fill="#F7F7F7"/>
<path d="M55.2776 48C59.1109 48 62.222 51.1111 62.222 54.9444C62.222 55.7111 61.5998 56.3333 60.8331 56.3333C56.9998 56.3333 53.8887 53.2222 53.8887 49.3889C53.8887 48.6222 54.5109 48 55.2776 48Z" fill="#F7F7F7"/>
<path d="M39.9997 51.4723C45.7527 51.4723 50.4163 46.8086 50.4163 41.0556C50.4163 35.3026 45.7527 30.6389 39.9997 30.6389C34.2467 30.6389 29.583 35.3026 29.583 41.0556C29.583 46.8086 34.2467 51.4723 39.9997 51.4723Z" stroke="#F7F7F7" stroke-width="1.5" stroke-linecap="round" stroke-linejoin="round"/>
<path d="M23.2021 67.4445C26.8077 62.0056 32.9855 58.4167 39.9994 58.4167C47.0133 58.4167 53.191 62.0029 56.7966 67.4445" stroke="#F7F7F7" stroke-width="2" stroke-linecap="round" stroke-linejoin="round"/>
<path d="M50.4163 41.0556C50.4163 35.3028 45.7525 30.6389 39.9997 30.6389C34.2469 30.6389 29.583 35.3028 29.583 41.0556C29.583 41.2917 29.6358 41.5139 29.6525 41.7472C33.9719 41.7222 37.7719 39.4945 39.9997 36.1361C42.2275 39.4973 46.0275 41.7222 50.3469 41.7472C50.3636 41.5139 50.4163 41.2917 50.4163 41.0556Z" fill="#F7F7F7"/>
</g>
<defs>
<filter id="filter0_d_253_2205" x="-4.54465" y="-4.54489" width="89.0903" height="89.09" filterUnits="userSpaceOnUse" color-interpolation-filters="sRGB">
<feFlood flood-opacity="0" result="BackgroundImageFix"/>
<feColorMatrix in="SourceAlpha" type="matrix" values="0 0 0 0 0 0 0 0 0 0 0 0 0 0 0 0 0 0 127 0" result="hardAlpha"/>
<feOffset/>
<feGaussianBlur stdDeviation="5.60582"/>
<feColorMatrix type="matrix" values="0 0 0 0 0.960784 0 0 0 0 0.960784 0 0 0 0 0.960784 0 0 0 1 0"/>
<feBlend mode="normal" in2="BackgroundImageFix" result="effect1_dropShadow_253_2205"/>
<feBlend mode="normal" in="SourceGraphic" in2="effect1_dropShadow_253_2205" result="shape"/>
</filter>
<clipPath id="clip0_253_2205">
<rect x="6.66699" y="6.66675" width="66.6667" height="66.6667" rx="33.3333" fill="white"/>
</clipPath>
</defs>
</svg>
