<svg width="80" height="80" viewBox="0 0 80 80" fill="none" xmlns="http://www.w3.org/2000/svg">
<g clip-path="url(#clip0_253_2194)">
<g filter="url(#filter0_d_253_2194)">
<path d="M40 7.66675C57.8569 7.66675 72.3338 22.1427 72.334 39.9998C72.334 57.8568 57.857 72.3337 40 72.3337C22.1429 72.3336 7.66699 57.8567 7.66699 39.9998C7.66717 22.1428 22.143 7.66692 40 7.66675Z" stroke="#F5F5F5" stroke-width="2" stroke-linecap="round"/>
</g>
<path d="M39.3603 27.1824C32.9383 27.5181 28.125 33.2815 28.125 39.713V45.2198C28.125 46.3028 28.6792 47.3098 29.5912 47.8925L36.0543 52.0059C36.561 52.3289 37.1532 52.4999 37.7548 52.4999H42.2452C42.8468 52.4999 43.4358 52.3289 43.9457 52.0059L50.4088 47.8925C51.3208 47.3098 51.875 46.3028 51.875 45.2198V39.0416C51.875 32.2713 46.2098 26.8246 39.3603 27.1824Z" fill="#5C5C5C"/>
<path d="M28.125 39.1968V24" stroke="#F7F7F7" stroke-width="2" stroke-linecap="round" stroke-linejoin="round"/>
<path d="M20.8516 69.1249C24.9619 62.9246 32.0046 58.8333 40.0004 58.8333C47.9962 58.8333 55.0389 62.9214 59.1492 69.1249" stroke="#F7F7F7" stroke-width="2" stroke-linecap="round" stroke-linejoin="round"/>
<path d="M39.3603 27.1824C32.9383 27.5181 28.125 33.2815 28.125 39.713V45.2198C28.125 46.3028 28.6792 47.3098 29.5912 47.8924L36.0543 52.0059C36.561 52.3289 37.1532 52.4999 37.7548 52.4999H42.2452C42.8468 52.4999 43.4358 52.3289 43.9457 52.0059L50.4088 47.8924C51.3208 47.3098 51.875 46.3028 51.875 45.2198V39.0416C51.875 32.2713 46.2098 26.8246 39.3603 27.1824Z" stroke="#F7F7F7" stroke-width="2" stroke-linecap="round" stroke-linejoin="round"/>
<path d="M28.2744 37.7529C31.1497 38.6142 35.1682 39.4692 40.0006 39.4692C44.8741 39.4692 48.9211 38.5984 51.8027 37.7275" stroke="#F7F7F7" stroke-width="2" stroke-linecap="round" stroke-linejoin="round"/>
<path d="M40 52.5001V39.4692" stroke="#F7F7F7" stroke-width="2" stroke-linecap="round" stroke-linejoin="round"/>
</g>
<defs>
<filter id="filter0_d_253_2194" x="-4.54465" y="-4.54489" width="89.0903" height="89.09" filterUnits="userSpaceOnUse" color-interpolation-filters="sRGB">
<feFlood flood-opacity="0" result="BackgroundImageFix"/>
<feColorMatrix in="SourceAlpha" type="matrix" values="0 0 0 0 0 0 0 0 0 0 0 0 0 0 0 0 0 0 127 0" result="hardAlpha"/>
<feOffset/>
<feGaussianBlur stdDeviation="5.60582"/>
<feColorMatrix type="matrix" values="0 0 0 0 0.960784 0 0 0 0 0.960784 0 0 0 0 0.960784 0 0 0 1 0"/>
<feBlend mode="normal" in2="BackgroundImageFix" result="effect1_dropShadow_253_2194"/>
<feBlend mode="normal" in="SourceGraphic" in2="effect1_dropShadow_253_2194" result="shape"/>
</filter>
<clipPath id="clip0_253_2194">
<rect x="6.66699" y="6.66675" width="66.6667" height="66.6667" rx="33.3333" fill="white"/>
</clipPath>
</defs>
</svg>
